<svg width="22" height="24" viewBox="0 0 22 24" fill="none" xmlns="http://www.w3.org/2000/svg">
<mask id="mask0_5830_1975" style="mask-type:alpha" maskUnits="userSpaceOnUse" x="0" y="0" width="22" height="24">
<g clip-path="url(#clip0_5830_1975)">
<path d="M1.92941 16.7059V6.66664L10.6196 1.64703" stroke="black" stroke-width="4" stroke-miterlimit="10"/>
<path d="M10.6196 1.64703L19.3098 6.66664V16.7059" stroke="black" stroke-width="4" stroke-miterlimit="10"/>
<path d="M19.3098 16.7059L10.6196 21.7255L1.92941 16.7059" stroke="black" stroke-width="4" stroke-miterlimit="10"/>
<path d="M5.33333 16.6275C5.35947 16.0523 5.58431 12.2855 5.64705 11.8463C5.72549 11.2973 5.56862 9.02279 5.64705 8.63064C5.72549 8.23848 5.88235 7.68946 6.11764 7.61103C6.35294 7.5326 6.90196 7.5326 7.37254 7.84632C7.84313 8.16005 8.31372 8.47378 8.54901 8.63064C8.73725 8.75613 9.04575 8.73521 9.17647 8.70907C9.35947 8.68292 9.89803 8.63064 10.5882 8.63064C11.451 8.63064 12 8.7875 12.2353 8.7875C12.4706 8.7875 12.4706 8.7875 12.7059 8.63064C12.9412 8.47377 13.8039 7.76789 14.3529 7.61103C14.902 7.45417 15.1372 7.5326 15.2941 7.76789C15.451 8.00318 15.6863 9.17966 15.6078 10.4346C15.5294 11.6895 15.5294 11.4542 15.6078 12.16C15.6706 12.7248 16 16.4183 16 16.8628" stroke="black"/>
<path d="M7.00876 9.11586C7.21745 9.23957 7.39512 9.35987 7.50052 9.45809C7.3822 9.52179 7.26738 9.60322 7.15983 9.68981C7.05726 9.77239 6.9395 9.77864 6.85661 9.74413C6.78072 9.71255 6.72797 9.6469 6.73466 9.53765C6.74138 9.42806 6.74946 9.32324 6.7591 9.22503C6.76562 9.15875 6.79988 9.11998 6.84048 9.10089C6.8831 9.08084 6.94443 9.07773 7.00876 9.11586Z" stroke="black" stroke-width="0.5"/>
<path d="M14.1677 9.11586C13.959 9.23957 13.7813 9.35987 13.6759 9.45809C13.7943 9.52179 13.9091 9.60322 14.0166 9.68981C14.1192 9.77239 14.237 9.77864 14.3199 9.74413C14.3957 9.71255 14.4485 9.64689 14.4418 9.53765C14.4351 9.42806 14.427 9.32324 14.4174 9.22503C14.4109 9.15876 14.3766 9.11998 14.336 9.10089C14.2934 9.08084 14.232 9.07773 14.1677 9.11586Z" stroke="black" stroke-width="0.5"/>
<ellipse cx="7.92157" cy="12.4738" rx="0.784314" ry="0.784314" stroke="black" stroke-width="0.5"/>
<circle cx="13.2549" cy="12.4738" r="0.784314" stroke="black" stroke-width="0.5"/>
<path d="M10.6667 13.5718L10.3291 13.7405C10.1422 13.834 9.92774 13.8565 9.72548 13.8039V13.8039M10.6667 13.5718V13.2581M10.6667 13.5718L11.0043 13.7389C11.1914 13.8315 11.4053 13.8545 11.6078 13.8039V13.8039M10.6667 13.2581C10.5098 13.2581 10.2745 13.1828 10.2745 13.0228C10.2745 12.8627 10.5098 12.7875 10.6667 12.7875C10.8235 12.7875 11.0588 12.8627 11.0588 13.0228C11.0588 13.1828 10.8235 13.2581 10.6667 13.2581Z" stroke="black" stroke-width="0.5"/>
<circle cx="13.5049" cy="12.4738" r="0.25" fill="#D9D9D9"/>
<circle cx="7.63885" cy="12.4738" r="0.25" fill="#D9D9D9"/>
</g>
</mask>
<g mask="url(#mask0_5830_1975)">
<rect x="-0.784317" y="-0.784302" width="22.902" height="25.5686" fill="white"/>
</g>
<defs>
<clipPath id="clip0_5830_1975">
<rect width="21.3333" height="24" fill="white"/>
</clipPath>
</defs>
</svg>
