<svg width="189" height="175" viewBox="0 0 189 175" fill="none" xmlns="http://www.w3.org/2000/svg">
<rect x="52" y="34" width="89" height="102" rx="16" fill="url(#paint0_linear_5784_279)"/>
<mask id="mask0_5784_279" style="mask-type:alpha" maskUnits="userSpaceOnUse" x="0" y="0" width="189" height="175">
<path d="M41.3 116.5V52.5L96.7 20.5" stroke="black" stroke-width="24" stroke-miterlimit="10"/>
<path d="M96.7 20.5L152.1 52.5V116.5" stroke="black" stroke-width="24" stroke-miterlimit="10"/>
<path d="M152.1 116.5L96.7 148.5L41.3 116.5" stroke="black" stroke-width="24" stroke-miterlimit="10"/>
<path d="M69.5001 114.4C69.5001 114.4 74.3001 109.8 74.8001 108.9C75.3001 108.1 75.9001 104 76.4001 103.1C76.9001 102.3 79.4001 99 79.4001 99C79.4001 99 75.8001 95 75.0001 93.2C74.2001 91.4 73.7001 87 73.9001 85.7C74.1001 84.4 75.4001 79.3 75.4001 77.9C75.4001 76.5 74.1001 74.8 74.0001 73.8C73.9001 72.9 74.0001 71.6 73.8001 71C73.6001 70.4 68.7001 63.5 68.5001 62.5C68.4001 61.4 68.0001 60.6 68.4001 59.9C68.8001 59.2 69.3001 58.8 70.1001 58.8C70.9001 58.9 73.5001 59.2 76.2001 60.7C78.9001 62.3 82.6001 63.3 84.1001 63.2C85.6001 63.1 89.4001 60.8 91.2001 60.4C93.0001 60 96.1001 59.3 99.8001 59.3C103.5 59.3 103.7 59.2 104.4 58.7C105.1 58.2 106.2 55.8 107.2 54.8C108.2 53.8 109.2 52.2 110.2 51.8C111.2 51.4 112.7 50.8 113.4 51.1C114.1 51.4 116.2 53.5 116.7 55.1C117.2 56.7 117.5 59.8 117.5 61.4C117.5 63 117.9 66.5 118.4 67.6C118.9 68.7 122.1 75.6 122.7 77.9C123.3 80.2 123.8 84.8 123.8 87.5C123.8 90.2 123.5 94.3 124.2 96.9C124.8 99.5 127.3 101.8 128 104C128.7 106.2 129.6 109.3 129.2 112.3" stroke="black" stroke-width="3" stroke-miterlimit="10" stroke-linecap="round"/>
<path d="M84.8 99.7L85.5 101.8" stroke="black" stroke-width="3" stroke-miterlimit="10" stroke-linecap="round"/>
<path d="M87.4001 104.6C87.4001 104.6 89.4001 106.2 91.4001 105.9C93.4001 105.6 95.4001 104.8 95.8001 104.3C96.2001 103.9 96.4001 103.9 96.4001 103.9C96.4001 103.9 96.8001 104 97.2001 104.3C97.6001 104.6 99.5001 105.4 102.1 105.2C104.7 105 106.6 102.6 106.9 102C107.2 101.4 108.2 98.7 108 98" stroke="black" stroke-width="3" stroke-miterlimit="10" stroke-linecap="round"/>
<path d="M96.7002 107.9C96.7002 107.9 94.6002 107.6 91.7002 106" stroke="black" stroke-width="3" stroke-miterlimit="10" stroke-linecap="round"/>
<path d="M98.9001 107.6C98.9001 107.6 101.1 106.6 102.3 105.2" stroke="black" stroke-width="3" stroke-miterlimit="10" stroke-linecap="round"/>
<path d="M95.8306 101.952C95.8306 101.952 94.8656 101.362 94.4433 100.986C94.0211 100.61 93.9005 100.073 94.0814 99.7514C94.3227 99.4831 95.2878 99 95.8909 99C96.4338 99 97.5195 99.1073 97.7608 99.4831C98.002 99.8588 98.1227 100.235 97.8211 100.61C97.5798 100.986 96.856 101.63 96.5544 101.845C96.1925 102.113 95.8306 101.952 95.8306 101.952Z" stroke="black" stroke-width="3" stroke-miterlimit="10" stroke-linecap="round"/>
<path d="M81.6001 86.5C81.6001 86.5 82.7001 90.1 83.8001 91.5C85.0001 92.8 87.4001 92.9 88.6001 92.7C89.8001 92.4 90.9001 91.6 90.9001 90.6C90.9001 89.6 90.0001 86.9 88.2001 86.3C86.4001 85.6 85.0001 85.5 81.6001 86.5Z" stroke="black" stroke-width="3" stroke-miterlimit="10" stroke-linecap="round"/>
<path d="M109.3 83.5C109.3 83.5 109.7 87.2 109 88.5C108.3 89.8 105.3 91.5 103.9 91.5C102.6 91.5 101.1 90.9 100.7 90.2C100.2 89.5 100.6 87 101.4 86.1C102.2 85.2 103.3 83.6 104.7 83.3C106.1 83 107.6 83.2 109.3 83.5Z" stroke="black" stroke-width="3" stroke-miterlimit="10" stroke-linecap="round"/>
<path d="M99.9001 68.7C99.9001 68.7 103 60.4 104.3 58.8" stroke="black" stroke-width="3" stroke-miterlimit="10" stroke-linecap="round"/>
<path d="M117 72C117 72 118.4 69.5 118.2 67.7" stroke="black" stroke-width="3" stroke-miterlimit="10" stroke-linecap="round"/>
<path d="M86.7001 70.1C86.7001 70.1 84.0001 66.4 82.6001 65.2C81.3001 64 76.1001 60.8 76.1001 60.8" stroke="black" stroke-width="3" stroke-miterlimit="10" stroke-linecap="round"/>
</mask>
<g mask="url(#mask0_5784_279)">
<rect x="24" y="5" width="145" height="163" fill="#2E303E"/>
</g>
<defs>
<linearGradient id="paint0_linear_5784_279" x1="65.0337" y1="48.9376" x2="136.493" y2="111.29" gradientUnits="userSpaceOnUse">
<stop stop-color="#FF007B"/>
<stop offset="0.5" stop-color="#B38ADE"/>
<stop offset="1" stop-color="#66EBFF"/>
</linearGradient>
</defs>
</svg>
