<svg width="22" height="24" viewBox="0 0 22 24" fill="none" xmlns="http://www.w3.org/2000/svg">
<mask id="mask0_5838_1700" style="mask-type:alpha" maskUnits="userSpaceOnUse" x="0" y="0" width="22" height="24">
<g clip-path="url(#clip0_5838_1700)">
<path d="M2.01331 17.4322V6.95654L11.0813 1.71869" stroke="black" stroke-width="2" stroke-miterlimit="10"/>
<path d="M11.0814 1.71869L20.1494 6.95654V17.4322" stroke="black" stroke-width="2" stroke-miterlimit="10"/>
<path d="M20.1494 17.4323L11.0813 22.6701L2.01331 17.4323" stroke="black" stroke-width="2" stroke-miterlimit="10"/>
<path d="M4.97913 18.5168C5.00867 17.8669 5.38704 12.3163 5.45795 11.82C5.54658 11.1995 5.36932 8.62915 5.45795 8.18599C5.54658 7.74282 5.72385 7.12239 5.98975 7.03375C6.25565 6.94512 6.87608 6.94512 7.40788 7.29965C7.93968 7.65419 8.47148 8.00872 8.73738 8.18599C8.9501 8.3278 9.29873 8.30416 9.44645 8.27462C9.65326 8.24508 10.2619 8.18599 11.0419 8.18599C12.0168 8.18599 12.6373 8.36325 12.9032 8.36325C13.1691 8.36325 13.1691 8.36326 13.435 8.18599C13.7009 8.00872 14.6758 7.21102 15.2963 7.03375C15.9167 6.85649 16.1826 6.94512 16.3599 7.21102C16.5371 7.47692 16.803 8.80642 16.7144 10.2246C16.6258 11.6427 16.6258 11.3768 16.7144 12.1745C16.7853 12.8126 17.2132 18.0146 17.2132 18.5168" stroke="black"/>
<path d="M7.60116 9.1229C7.60329 9.12504 7.60535 9.12713 7.60735 9.12918C7.41687 9.22529 7.23038 9.367 7.06004 9.51566C6.96457 9.59899 6.85288 9.60643 6.77174 9.57289C6.6957 9.54145 6.64055 9.47353 6.64606 9.36293C6.65649 9.15371 6.6708 8.95623 6.69004 8.77976C6.69727 8.71347 6.7322 8.67369 6.77479 8.65383C6.81948 8.63298 6.88275 8.63013 6.9481 8.66808C7.22458 8.82865 7.4704 8.99162 7.60116 9.1229Z" stroke="black" stroke-width="0.5"/>
<path d="M14.4826 9.1229C14.4805 9.12504 14.4784 9.12713 14.4764 9.12918C14.6669 9.22529 14.8534 9.367 15.0237 9.51566C15.1192 9.59899 15.2309 9.60643 15.312 9.57289C15.388 9.54145 15.4432 9.47353 15.4377 9.36293C15.4272 9.15371 15.4129 8.95623 15.3937 8.77976C15.3865 8.71347 15.3515 8.67369 15.3089 8.65383C15.2643 8.63299 15.201 8.63013 15.1356 8.66808C14.8592 8.82865 14.6133 8.99162 14.4826 9.1229Z" stroke="black" stroke-width="0.5"/>
<ellipse cx="8.0283" cy="12.529" rx="0.886334" ry="0.886333" stroke="black" stroke-width="0.5"/>
<circle cx="14.0554" cy="12.529" r="0.886333" stroke="black" stroke-width="0.5"/>
<path d="M11.1305 13.7699L10.7491 13.9606C10.5378 14.0662 10.2955 14.0916 10.0669 14.0322V14.0322M11.1305 13.7699V13.4153M11.1305 13.7699L11.512 13.9587C11.7235 14.0634 11.9652 14.0894 12.1941 14.0322V14.0322M11.1305 13.4153C10.9532 13.4153 10.6873 13.3303 10.6873 13.1494C10.6873 12.9686 10.9532 12.8835 11.1305 12.8835C11.3078 12.8835 11.5737 12.9686 11.5737 13.1494C11.5737 13.3303 11.3078 13.4153 11.1305 13.4153Z" stroke="black" stroke-width="0.5"/>
<circle cx="14.3162" cy="12.505" r="0.26087" fill="#D9D9D9"/>
<circle cx="7.76734" cy="12.505" r="0.26087" fill="#D9D9D9"/>
</g>
</mask>
<g mask="url(#mask0_5838_1700)">
<rect width="21.913" height="24" fill="white"/>
</g>
<defs>
<clipPath id="clip0_5838_1700">
<rect width="21.913" height="24" fill="white"/>
</clipPath>
</defs>
</svg>
